<svg xmlns="http://www.w3.org/2000/svg" viewBox="0 0 512 512">
  <path fill="maroon" d="M122.379 143.361q5.015 3.891 11.507 7.03 6.518 3.104 13.545 4.26l-5.377 6.93q-6.27-1.627-10.846-3.783 1.93 3.338 2.795 5.962.83 2.597.69 4.72-.14 2.123-.907 3.76-.733 1.663-2.219 3.578-1.243 1.602-3.108 3l-5.887-4.566q1.267-.914 2.24-2.168 1.189-1.532 1.899-2.879.701-1.408.958-3.608.256-2.2-.555-4.391-.846-2.218-3.266-5.212-2.42-2.993-6.495-6.154-5.26-4.08-8.748-5.336-3.497-1.318-5.885-.325-2.396.93-4.882 4.135l-2.431 3.135-4.981-3.864 2.594-3.344q5.971-7.697 12.95-7.919 7.005-.256 16.409 7.04zm-23.543 36.894 23.4 9.153-2.987 7.636-23.4-9.153q-2.997-1.172-5.595-1.668-2.583-.537-5.135-.304-2.578.175-4.657 1.255-2.079 1.08-3.912 3.345-1.873 2.25-3.19 5.616l-5.395 13.794-5.87-2.296 5.378-13.753q2.024-5.173 4.657-8.64 2.61-3.523 5.518-5.273 2.868-1.765 6.393-2.185 3.5-.477 7.066.208 3.541.627 7.729 2.265zm-43.26 98.877.412-21.464q.242-12.56 5.86-18.14t18.84-5.326q13.399.258 19.813 6.024 6.37 5.766 6.151 17.181-.219 11.415-6.806 16.932-6.631 5.516-20.03 5.259zm7.155-21.334-.255 13.31 17.85.343q19.348.372 19.627-14.173.28-14.544-19.421-14.922-5.157-.1-8.614.848-3.456.904-5.436 2.982-1.98 2.034-2.827 4.84-.847 2.761-.924 6.772zm20.009 48.309 24.973-9.486 2.912 7.665-25.055 9.517q-3.05 1.158-4.99 2.132-1.983.988-3.761 2.513-1.82 1.54-2.514 3.312-.695 1.773-.56 4.362.094 2.606 1.346 5.902l3.85 10.138 23.201-8.813q8.82-3.35 14.075-2.423 5.24.886 7.62 7.15.83 2.184 1.391 5.648l-5.892 2.239q-.441-2.898-1.036-4.464-1.111-2.926-3.82-2.981-2.71-.056-9.426 2.496l-23.2 8.812 2.707 7.13-5.892 2.238-9.47-24.931q-2.24-5.893-2.34-10.381-.16-4.514 1.839-7.82 1.998-3.305 5.362-5.62 3.365-2.316 8.68-4.335zm67.173 89.187.636-22.038 7.7 5.676-.93 32.17q1.36.236 2.286.316.864.09 2.564-.136 1.674-.19 3.14-.916 1.405-.717 3.304-2.33 1.9-1.61 3.705-4.06l7.009-9.51 6.53 4.813-4.84 6.565q-2.118 2.874-4.277 5.061-2.16 2.187-3.947 3.498-1.823 1.285-3.757 2.05-1.959.801-3.394 1.113-1.47.286-3.18.23-1.747-.083-2.789-.304-1.068-.185-2.508-.534l-.672 22.012-7.7-5.676.93-32.17q-1.298-.245-2.162-.335-.927-.08-2.627.145-1.7.226-3.14.917-1.466.727-3.365 2.338-1.9 1.612-3.705 4.06l-7.009 9.51-6.53-4.812 4.84-6.565q2.144-2.91 4.303-5.096 2.134-2.152 3.983-3.472 1.788-1.311 3.747-2.112 1.933-.766 3.403-1.051 1.444-.25 3.155-.194 1.71.056 2.78.241 1.041.22 2.517.596zm76.529 17.607-28.74 36.689 29.762 8.314-6.12 21.907-7.939-2.218 4.424-15.836-31.108-8.736 1.432-4.635 30.01-37.797zm68.582 50.683-18.726 1.405q-11.341.851-18.329-5.078-6.987-5.93-7.871-17.71-.885-11.781 5.183-18.69 6.024-6.907 17.322-7.755l18.726-1.405.468 6.242-15.385 1.154q-10.374.78-14.629 5.342-4.299 4.567-3.514 15.029.723 9.626 5.777 13.358 5.054 3.732 15.077 2.98l7.253-.545-.689-9.762q-.196-3.212-1.894-4.632-1.695-1.375-4.948-1.131-1.802.135-4.705.927l-.501-6.681q3.552-.974 6.497-1.195 5.89-.442 9.563 2.553 3.629 3 4.21 10.736zm31.94-42.511L307.727 410.3l8.596-4.196 28.08 15.727q.84-1.096 1.34-1.88.48-.725 1.067-2.336.607-1.571.642-3.207.015-1.577-.533-4.008-.548-2.43-1.882-5.163l-5.182-10.617 7.29-3.558 3.576 7.33q1.566 3.208 2.504 6.135.938 2.927 1.272 5.118.294 2.211.077 4.28-.198 2.107-.586 3.522-.428 1.435-1.27 2.926-.882 1.51-1.56 2.33-.66.862-1.636 1.976l19.197 10.791-8.596 4.196-28.08-15.726q-.82 1.037-1.3 1.761-.5.784-1.087 2.395t-.642 3.208q-.035 1.635.513 4.066.549 2.43 1.883 5.163l5.181 10.617-7.29 3.558-3.576-7.33q-1.585-3.248-2.523-6.174-.919-2.888-1.232-5.138-.334-2.192-.136-4.3.217-2.067.644-3.502.448-1.396 1.29-2.886.842-1.49 1.501-2.351.678-.822 1.695-1.955zm75.136-46.77q-5.181-3.669-11.803-6.522-6.647-2.817-13.717-3.665l5.07-7.159q6.334 1.353 11 3.307-2.073-3.25-3.052-5.834-.943-2.559-.895-4.686.048-2.127.743-3.795.66-1.693 2.06-3.672 1.173-1.655 2.976-3.133l6.079 4.306q-1.226.968-2.143 2.263-1.121 1.583-1.772 2.96-.64 1.437-.8 3.646-.16 2.21.745 4.363.942 2.179 3.49 5.064 2.548 2.885 6.757 5.866 5.432 3.847 8.972 4.95 3.551 1.165 5.894.069 2.353-1.035 4.697-4.344l2.293-3.238 5.144 3.644-2.446 3.453q-5.63 7.95-12.593 8.475-6.987.561-16.7-6.318zm21.909-37.88-23.775-8.13 2.653-7.759 23.775 8.13q3.044 1.042 5.662 1.424 2.604.425 5.144.082 2.567-.287 4.597-1.456 2.03-1.169 3.763-3.511 1.775-2.329 2.944-5.749l4.793-14.015 5.965 2.04-4.779 13.973q-1.797 5.255-4.278 8.833-2.454 3.633-5.284 5.507-2.789 1.888-6.292 2.46-3.476.629-7.069.1-3.565-.474-7.82-1.93zm38.951-100.647.514 21.461q.3 12.56-5.072 18.377-5.372 5.817-18.593 6.133-13.397.32-20.054-5.164-6.613-5.486-6.886-16.9-.274-11.414 6.07-17.21 6.387-5.797 19.784-6.117zm-6.228 21.623-.319-13.309-17.848.427q-19.346.463-18.998 15.006.348 14.542 20.047 14.071 5.156-.123 8.569-1.22 3.414-1.05 5.303-3.213 1.89-2.117 2.615-4.957.727-2.795.63-6.805zm-22.085-47.41-24.536 10.563-3.242-7.53 24.617-10.6q2.996-1.289 4.893-2.346 1.937-1.074 3.648-2.674 1.751-1.618 2.367-3.419.617-1.801.37-4.382-.208-2.599-1.602-5.838l-4.288-9.96-22.795 9.814q-8.665 3.73-13.956 3.033-5.275-.657-7.924-6.811-.924-2.146-1.636-5.583l5.79-2.493q.566 2.876 1.228 4.415 1.238 2.874 3.947 2.812 2.709-.063 9.308-2.904l22.795-9.814-3.015-7.004 5.79-2.493 10.546 24.495q2.492 5.79 2.79 10.27.354 4.502-1.498 7.892-1.853 3.389-5.113 5.848-3.26 2.46-8.484 4.709zm-70.969-86.197.323 22.045-7.94-5.335-.469-32.181q-1.368-.176-2.298-.216-.867-.052-2.556.247-1.663.263-3.097 1.052-1.372.778-3.2 2.47-1.828 1.693-3.524 4.218l-6.59 9.806-6.732-4.524 4.549-6.77q1.991-2.963 4.054-5.242 2.062-2.278 3.791-3.666 1.766-1.363 3.664-2.211 1.923-.886 3.342-1.26 1.456-.349 3.168-.367 1.748.006 2.8.181 1.075.139 2.528.425l-.286-22.02 7.94 5.335.469 32.181q1.307.188 2.175.24.93.04 2.618-.26 1.688-.299 3.097-1.051 1.433-.79 3.26-2.483 1.829-1.692 3.525-4.217l6.59-9.806 6.732 4.524-4.549 6.77q-2.016 3-4.078 5.278-2.038 2.242-3.828 3.642-1.73 1.387-3.652 2.273-1.898.848-3.354 1.198-1.432.312-3.144.33-1.711.019-2.787-.12-1.05-.175-2.54-.486zm-77.222-14.268 27.129-37.894-30.093-7.022 5.168-22.15 8.028 1.872-3.736 16.013 31.456 7.384-1.23 4.692-28.351 39.059zm-70.708-47.678 18.648-2.213q11.294-1.34 18.53 4.281 7.238 5.622 8.63 17.354 1.393 11.731-4.37 18.896-5.72 7.16-16.97 8.496l-18.648 2.213-.738-6.215 15.321-1.82q10.33-1.225 14.384-5.968 4.098-4.748 2.861-15.166-1.138-9.587-6.349-13.097-5.21-3.51-15.191-2.325l-7.223.858 1.11 9.723q.336 3.2 2.093 4.545 1.753 1.302 4.992.917 1.795-.213 4.66-1.13l.79 6.654q-3.506 1.126-6.44 1.474-5.865.697-9.664-2.137-3.755-2.84-4.67-10.544zm-30.078 43.867 19.69 9.919-8.405 4.568-28.742-14.482q-.79 1.132-1.255 1.937-.448.745-.964 2.38-.538 1.596-.501 3.232.054 1.577.708 3.98.654 2.404 2.107 5.077l5.641 10.38-7.126 3.873-3.895-7.165q-1.705-3.138-2.77-6.02-1.065-2.883-1.495-5.058-.39-2.196-.264-4.272.105-2.114.431-3.545.365-1.453 1.14-2.978.816-1.547 1.457-2.398.621-.889 1.548-2.045l-19.651-9.94 8.404-4.568 28.743 14.482q.772-1.072 1.22-1.817.465-.805.981-2.44.516-1.635.501-3.233-.036-1.635-.69-4.04-.655-2.403-2.107-5.076l-5.641-10.38 7.126-3.873 3.894 7.166q1.726 3.175 2.792 6.058 1.044 2.845 1.455 5.08.43 2.174.325 4.288-.127 2.076-.491 3.528-.386 1.414-1.162 2.94-.776 1.525-1.397 2.414-.641.85-1.607 2.028z" aria-label="גרסת אלפא גרסת אלפא" font-size="133.333"/>
</svg>
