<svg width="306.619" height="80.901" viewBox="0 0 306.619 80.901" xmlns="http://www.w3.org/2000/svg"><g id="svgGroup" stroke-linecap="round" fill-rule="evenodd" font-size="9pt" stroke="#000" stroke-width="0.5mm" fill="#820000" style="stroke:#000;stroke-width:0.5mm;fill:#820000"><path d="M 173.81 78.901 L 173.81 77.001 L 174.11 48.601 A 3783.934 3783.934 0 0 0 174.188 43.841 Q 174.31 36.057 174.31 33.401 L 174.51 20.901 L 174.51 19.001 L 165.21 19.001 L 165.21 34.401 L 165.31 47.601 A 475.148 475.148 0 0 1 165.257 54.951 Q 165.029 69.657 163.81 73.801 A 5.878 5.878 0 0 1 162.859 75.791 Q 162.323 76.541 161.524 77.27 A 14.779 14.779 0 0 1 160.11 78.401 Q 157.773 80.06 155.606 80.468 A 7.53 7.53 0 0 1 154.21 80.601 A 1.115 1.115 0 0 1 154.041 80.526 Q 153.76 80.376 153.31 80.001 Q 152.752 79.536 152.713 79.244 A 0.324 0.324 0 0 1 152.71 79.201 A 1.485 1.485 0 0 1 152.781 78.78 Q 152.967 78.157 153.648 77.188 A 14.096 14.096 0 0 1 153.71 77.101 L 160.11 71.701 A 7.414 7.414 0 0 0 160.293 70.792 Q 160.41 69.964 160.41 68.901 L 160.31 19.101 Q 159.782 19.176 158.743 19.195 A 41.235 41.235 0 0 1 158.01 19.201 Q 157.008 19.201 156.047 18.371 A 5.221 5.221 0 0 1 155.86 18.201 A 3.892 3.892 0 0 1 155.241 17.457 A 2.693 2.693 0 0 1 154.81 16.001 A 1.506 1.506 0 0 1 155.659 14.564 Q 156.352 14.201 157.61 14.201 L 162.91 14.301 L 176.41 13.901 L 177.21 13.901 Q 178.51 13.901 179.16 14.801 A 3.441 3.441 0 0 1 179.804 16.676 A 4.28 4.28 0 0 1 179.81 16.901 L 179.51 19.101 L 179.11 51.301 L 178.81 66.101 L 178.51 79.101 A 1.237 1.237 0 0 1 178.243 79.859 Q 178.048 80.119 177.71 80.351 Q 176.91 80.901 175.91 80.901 A 3.184 3.184 0 0 1 175.092 80.805 Q 173.81 80.464 173.81 78.901 Z M 27.91 77.901 L 28.01 78.401 Q 28.01 79.101 27.46 79.701 A 2.575 2.575 0 0 1 26.413 80.385 A 3.323 3.323 0 0 1 26.01 80.501 A 1.487 1.487 0 0 1 25.805 80.552 Q 25.593 80.59 25.29 80.599 A 6.387 6.387 0 0 1 25.11 80.601 Q 24.21 80.601 23.41 80.101 A 2.229 2.229 0 0 1 22.714 79.435 A 2.188 2.188 0 0 1 22.41 78.701 Q 21.11 74.101 18.31 65.701 A 149.349 149.349 0 0 1 17.585 63.52 Q 16.46 60.051 15.11 55.401 L 14.41 52.801 L 13.91 51.701 L 13.31 49.401 Q 12.31 46.101 10.91 42.301 A 193.68 193.68 0 0 0 9.498 49.703 Q 8.881 53.29 8.284 57.389 A 434.634 434.634 0 0 0 7.11 66.101 Q 6.31 72.601 5.51 75.301 Q 5.591 75.462 5.606 76.079 A 12.797 12.797 0 0 1 5.61 76.401 Q 5.61 78.022 5.111 78.971 A 2.423 2.423 0 0 1 3.01 80.301 A 4.106 4.106 0 0 1 1.575 80.055 A 3.809 3.809 0 0 1 0.86 79.701 A 2.02 2.02 0 0 1 0.354 79.259 Q -0.058 78.744 0.01 78.001 Q -0.073 74.785 1.477 65.961 A 307.433 307.433 0 0 1 2.21 61.951 A 610.018 610.018 0 0 1 3.329 56.185 Q 4.96 48.001 6.31 42.601 Q 7.517 37.587 7.517 33.435 A 27.889 27.889 0 0 0 7.51 32.801 L 7.51 32.201 Q 5.81 26.901 4.61 22.401 L 3.91 20.001 A 31.727 31.727 0 0 1 3.041 18.465 Q 1.853 16.208 1.811 14.988 A 2.557 2.557 0 0 1 1.81 14.901 A 3.821 3.821 0 0 1 3.502 13.208 A 5.304 5.304 0 0 1 4.21 12.901 A 1.487 1.487 0 0 1 4.415 12.851 Q 4.627 12.812 4.929 12.804 A 6.387 6.387 0 0 1 5.11 12.801 Q 6.21 12.801 7.11 13.401 Q 8.01 14.001 8.31 15.001 Q 8.538 15.457 8.593 16.488 A 13.487 13.487 0 0 1 8.61 17.201 L 8.91 19.401 A 112.129 112.129 0 0 0 9.811 22.443 Q 11.605 28.246 15.51 39.501 L 17.31 44.801 A 1037.348 1037.348 0 0 1 17.627 42.594 Q 18.716 35.091 18.809 35.397 A 0.076 0.076 0 0 1 18.81 35.401 Q 18.81 35.019 18.901 34.41 A 13.842 13.842 0 0 1 18.91 34.351 Q 19.01 33.701 19.11 32.901 Q 19.47 30.67 19.622 28.957 A 30.575 30.575 0 0 0 19.71 27.701 Q 19.982 24.71 19.925 22.788 A 18.866 18.866 0 0 0 19.91 22.401 A 14.449 14.449 0 0 0 19.863 21.211 A 12.252 12.252 0 0 0 19.81 20.701 A 23.112 23.112 0 0 0 19.806 20.283 Q 19.791 19.445 19.71 19.201 Q 19.642 17.226 20.037 15.901 A 4.794 4.794 0 0 1 20.51 14.801 A 3.994 3.994 0 0 1 21.566 13.665 Q 22.078 13.282 22.761 12.97 A 10.286 10.286 0 0 1 24.01 12.501 L 26.01 14.701 A 7.372 7.372 0 0 0 25.42 15.853 Q 25.178 16.439 24.993 17.127 A 13.14 13.14 0 0 0 24.91 17.451 Q 24.604 18.714 24.532 19.714 A 8.208 8.208 0 0 0 24.51 20.301 A 55.164 55.164 0 0 0 24.524 21.581 Q 24.539 22.211 24.569 22.764 A 28.028 28.028 0 0 0 24.61 23.401 L 24.61 24.501 A 17.483 17.483 0 0 0 24.296 25.852 Q 23.641 29.146 22.763 37.227 A 483.173 483.173 0 0 0 22.61 38.651 A 651.581 651.581 0 0 0 22.066 43.992 Q 21.506 49.741 21.243 53.726 A 143.295 143.295 0 0 0 21.11 56.001 Q 24.326 65.648 26.603 73.36 A 324.982 324.982 0 0 1 27.91 77.901 Z M 127.71 77.901 L 127.81 78.401 Q 127.81 79.101 127.26 79.701 A 2.575 2.575 0 0 1 126.213 80.385 A 3.323 3.323 0 0 1 125.81 80.501 A 1.487 1.487 0 0 1 125.605 80.552 Q 125.393 80.59 125.09 80.599 A 6.387 6.387 0 0 1 124.91 80.601 Q 124.01 80.601 123.21 80.101 A 2.229 2.229 0 0 1 122.514 79.435 A 2.188 2.188 0 0 1 122.21 78.701 Q 120.91 74.101 118.11 65.701 A 149.349 149.349 0 0 1 117.385 63.52 Q 116.26 60.051 114.91 55.401 L 114.21 52.801 L 113.71 51.701 L 113.11 49.401 Q 112.11 46.101 110.71 42.301 A 193.68 193.68 0 0 0 109.298 49.703 Q 108.681 53.29 108.084 57.389 A 434.634 434.634 0 0 0 106.91 66.101 Q 106.11 72.601 105.31 75.301 Q 105.391 75.462 105.406 76.079 A 12.797 12.797 0 0 1 105.41 76.401 Q 105.41 78.022 104.911 78.971 A 2.423 2.423 0 0 1 102.81 80.301 A 4.106 4.106 0 0 1 101.375 80.055 A 3.809 3.809 0 0 1 100.66 79.701 A 2.02 2.02 0 0 1 100.154 79.259 Q 99.742 78.744 99.81 78.001 Q 99.727 74.785 101.277 65.961 A 307.433 307.433 0 0 1 102.01 61.951 A 610.018 610.018 0 0 1 103.129 56.185 Q 104.76 48.001 106.11 42.601 Q 107.317 37.587 107.317 33.435 A 27.889 27.889 0 0 0 107.31 32.801 L 107.31 32.201 Q 105.61 26.901 104.41 22.401 L 103.71 20.001 A 31.727 31.727 0 0 1 102.841 18.465 Q 101.653 16.208 101.611 14.988 A 2.557 2.557 0 0 1 101.61 14.901 A 3.821 3.821 0 0 1 103.302 13.208 A 5.304 5.304 0 0 1 104.01 12.901 A 1.487 1.487 0 0 1 104.215 12.851 Q 104.427 12.812 104.729 12.804 A 6.387 6.387 0 0 1 104.91 12.801 Q 106.01 12.801 106.91 13.401 Q 107.81 14.001 108.11 15.001 Q 108.338 15.457 108.393 16.488 A 13.487 13.487 0 0 1 108.41 17.201 L 108.71 19.401 A 112.129 112.129 0 0 0 109.611 22.443 Q 111.405 28.246 115.31 39.501 L 117.11 44.801 A 1037.348 1037.348 0 0 1 117.427 42.594 Q 118.516 35.091 118.609 35.397 A 0.076 0.076 0 0 1 118.61 35.401 Q 118.61 35.019 118.701 34.41 A 13.842 13.842 0 0 1 118.71 34.351 Q 118.81 33.701 118.91 32.901 Q 119.27 30.67 119.422 28.957 A 30.575 30.575 0 0 0 119.51 27.701 Q 119.782 24.71 119.725 22.788 A 18.866 18.866 0 0 0 119.71 22.401 A 14.449 14.449 0 0 0 119.663 21.211 A 12.252 12.252 0 0 0 119.61 20.701 A 23.112 23.112 0 0 0 119.606 20.283 Q 119.591 19.445 119.51 19.201 Q 119.442 17.226 119.837 15.901 A 4.794 4.794 0 0 1 120.31 14.801 A 3.994 3.994 0 0 1 121.366 13.665 Q 121.878 13.282 122.561 12.97 A 10.286 10.286 0 0 1 123.81 12.501 L 125.81 14.701 A 7.372 7.372 0 0 0 125.22 15.853 Q 124.978 16.439 124.793 17.127 A 13.14 13.14 0 0 0 124.71 17.451 Q 124.404 18.714 124.332 19.714 A 8.208 8.208 0 0 0 124.31 20.301 A 55.164 55.164 0 0 0 124.324 21.581 Q 124.339 22.211 124.369 22.764 A 28.028 28.028 0 0 0 124.41 23.401 L 124.41 24.501 A 17.483 17.483 0 0 0 124.096 25.852 Q 123.441 29.146 122.563 37.227 A 483.173 483.173 0 0 0 122.41 38.651 A 651.581 651.581 0 0 0 121.866 43.992 Q 121.306 49.741 121.043 53.726 A 143.295 143.295 0 0 0 120.91 56.001 Q 124.126 65.648 126.403 73.36 A 324.982 324.982 0 0 1 127.71 77.901 Z M 216.31 77.901 L 216.41 78.401 Q 216.41 79.101 215.86 79.701 A 2.575 2.575 0 0 1 214.813 80.385 A 3.323 3.323 0 0 1 214.41 80.501 A 1.487 1.487 0 0 1 214.205 80.552 Q 213.993 80.59 213.69 80.599 A 6.387 6.387 0 0 1 213.51 80.601 Q 212.61 80.601 211.81 80.101 A 2.229 2.229 0 0 1 211.114 79.435 A 2.188 2.188 0 0 1 210.81 78.701 Q 209.51 74.101 206.71 65.701 A 149.349 149.349 0 0 1 205.985 63.52 Q 204.86 60.051 203.51 55.401 L 202.81 52.801 L 202.31 51.701 L 201.71 49.401 Q 200.71 46.101 199.31 42.301 A 193.68 193.68 0 0 0 197.898 49.703 Q 197.281 53.29 196.684 57.389 A 434.634 434.634 0 0 0 195.51 66.101 Q 194.71 72.601 193.91 75.301 Q 193.991 75.462 194.006 76.079 A 12.797 12.797 0 0 1 194.01 76.401 Q 194.01 78.022 193.511 78.971 A 2.423 2.423 0 0 1 191.41 80.301 A 4.106 4.106 0 0 1 189.975 80.055 A 3.809 3.809 0 0 1 189.26 79.701 A 2.02 2.02 0 0 1 188.754 79.259 Q 188.342 78.744 188.41 78.001 Q 188.327 74.785 189.877 65.961 A 307.433 307.433 0 0 1 190.61 61.951 A 610.018 610.018 0 0 1 191.729 56.185 Q 193.36 48.001 194.71 42.601 Q 195.917 37.587 195.917 33.435 A 27.889 27.889 0 0 0 195.91 32.801 L 195.91 32.201 Q 194.21 26.901 193.01 22.401 L 192.31 20.001 A 31.727 31.727 0 0 1 191.441 18.465 Q 190.253 16.208 190.211 14.988 A 2.557 2.557 0 0 1 190.21 14.901 A 3.821 3.821 0 0 1 191.902 13.208 A 5.304 5.304 0 0 1 192.61 12.901 A 1.487 1.487 0 0 1 192.815 12.851 Q 193.027 12.812 193.329 12.804 A 6.387 6.387 0 0 1 193.51 12.801 Q 194.61 12.801 195.51 13.401 Q 196.41 14.001 196.71 15.001 Q 196.938 15.457 196.993 16.488 A 13.487 13.487 0 0 1 197.01 17.201 L 197.31 19.401 A 112.129 112.129 0 0 0 198.211 22.443 Q 200.005 28.246 203.91 39.501 L 205.71 44.801 A 1037.348 1037.348 0 0 1 206.027 42.594 Q 207.116 35.091 207.209 35.397 A 0.076 0.076 0 0 1 207.21 35.401 Q 207.21 35.019 207.301 34.41 A 13.842 13.842 0 0 1 207.31 34.351 Q 207.41 33.701 207.51 32.901 Q 207.87 30.67 208.022 28.957 A 30.575 30.575 0 0 0 208.11 27.701 Q 208.382 24.71 208.325 22.788 A 18.866 18.866 0 0 0 208.31 22.401 A 14.449 14.449 0 0 0 208.263 21.211 A 12.252 12.252 0 0 0 208.21 20.701 A 23.112 23.112 0 0 0 208.206 20.283 Q 208.191 19.445 208.11 19.201 Q 208.042 17.226 208.437 15.901 A 4.794 4.794 0 0 1 208.91 14.801 A 3.994 3.994 0 0 1 209.966 13.665 Q 210.478 13.282 211.161 12.97 A 10.286 10.286 0 0 1 212.41 12.501 L 214.41 14.701 A 7.372 7.372 0 0 0 213.82 15.853 Q 213.578 16.439 213.393 17.127 A 13.14 13.14 0 0 0 213.31 17.451 Q 213.004 18.714 212.932 19.714 A 8.208 8.208 0 0 0 212.91 20.301 A 55.164 55.164 0 0 0 212.924 21.581 Q 212.939 22.211 212.969 22.764 A 28.028 28.028 0 0 0 213.01 23.401 L 213.01 24.501 A 17.483 17.483 0 0 0 212.696 25.852 Q 212.041 29.146 211.163 37.227 A 483.173 483.173 0 0 0 211.01 38.651 A 651.581 651.581 0 0 0 210.466 43.992 Q 209.906 49.741 209.643 53.726 A 143.295 143.295 0 0 0 209.51 56.001 Q 212.726 65.648 215.003 73.36 A 324.982 324.982 0 0 1 216.31 77.901 Z M 35.31 76.201 L 35.31 75.801 Q 35.31 75.001 35.81 74.351 A 2.217 2.217 0 0 1 36.231 73.927 A 1.669 1.669 0 0 1 37.01 73.601 Q 37.422 73.683 37.902 73.936 A 5.374 5.374 0 0 1 38.11 74.051 A 6.663 6.663 0 0 0 38.972 74.477 A 5.811 5.811 0 0 0 39.31 74.601 A 10.861 10.861 0 0 0 41.589 75.378 Q 42.728 75.639 44.069 75.739 A 23.442 23.442 0 0 0 45.81 75.801 Q 49.857 75.801 51.862 71.158 A 14.308 14.308 0 0 0 52.01 70.801 A 20.73 20.73 0 0 0 52.977 67.546 Q 54.01 62.82 54.01 55.201 L 54.01 47.801 L 53.71 35.601 Q 53.71 28.298 52.744 24.194 A 15.637 15.637 0 0 0 52.11 22.101 A 8.981 8.981 0 0 0 50.931 19.937 A 6.078 6.078 0 0 0 46.71 17.501 L 43.41 17.001 Q 42.714 17.156 42.317 18.028 A 4.114 4.114 0 0 0 42.11 18.601 Q 41.724 19.953 41.431 23.45 A 93.444 93.444 0 0 0 41.41 23.701 A 20.886 20.886 0 0 0 41.366 24.37 Q 41.328 25.13 41.315 26.183 A 88.915 88.915 0 0 0 41.31 27.201 Q 41.31 30.383 41.781 34.663 A 123.682 123.682 0 0 0 42.21 38.101 A 13.487 13.487 0 0 0 42.325 39.316 Q 42.408 39.889 42.54 40.371 A 5.755 5.755 0 0 0 42.81 41.151 Q 43.31 42.301 44.11 43.301 A 4.508 4.508 0 0 1 44.626 43.91 Q 45.11 44.606 45.11 45.301 Q 45.11 46.38 44.101 47.795 A 9.797 9.797 0 0 1 44.06 47.851 A 2.781 2.781 0 0 1 43.378 48.529 Q 42.458 49.156 41.11 48.801 Q 39.31 48.401 38.51 46.651 Q 37.837 45.178 37.553 43.102 A 20.183 20.183 0 0 1 37.46 42.301 A 65.535 65.535 0 0 1 37.336 40.795 Q 37.184 38.697 37.015 35.184 A 578.458 578.458 0 0 1 36.91 32.901 L 36.81 30.801 Q 36.81 28.543 37.196 23.874 A 238.911 238.911 0 0 1 37.21 23.701 Q 37.91 12.401 41.21 12.401 A 2.354 2.354 0 0 1 42.439 12.755 A 3.284 3.284 0 0 1 42.91 13.101 L 47.91 13.501 A 9.91 9.91 0 0 1 55.366 17.866 A 14.18 14.18 0 0 1 56.56 19.951 A 22.62 22.62 0 0 1 58.01 24.198 Q 59.101 28.666 59.277 35.15 A 94.577 94.577 0 0 1 59.31 37.701 L 59.31 53.701 Q 59.31 57.401 58.91 61.801 A 65.871 65.871 0 0 1 58.638 64.297 Q 58.297 66.932 57.81 68.601 A 32.876 32.876 0 0 1 56.763 71.919 Q 55.504 75.237 53.774 77.081 A 9.147 9.147 0 0 1 53.51 77.351 A 9.103 9.103 0 0 1 48.441 79.846 A 12.781 12.781 0 0 1 46.41 80.001 A 23.982 23.982 0 0 1 43.378 79.818 A 18.597 18.597 0 0 1 40.96 79.351 A 16.034 16.034 0 0 1 37.955 78.206 A 20.479 20.479 0 0 1 36.01 77.101 Q 35.41 76.501 35.31 76.201 Z M 82.61 39.001 L 83.91 35.501 A 17.134 17.134 0 0 0 84.318 34.047 Q 84.708 32.405 84.974 30.163 A 53.985 53.985 0 0 0 85.01 29.851 A 64.871 64.871 0 0 0 85.404 23.447 A 71.316 71.316 0 0 0 85.41 22.501 Q 85.41 19.701 85.31 18.501 Q 83.826 18.254 82.852 18.142 A 20.911 20.911 0 0 0 82.46 18.101 Q 81.602 18.019 79.376 17.938 A 241.162 241.162 0 0 0 78.31 17.901 A 56.294 56.294 0 0 1 75.969 17.775 Q 72.623 17.519 71.187 16.891 A 3.545 3.545 0 0 1 70.81 16.701 A 3.161 3.161 0 0 1 70.278 16.284 Q 69.972 15.98 69.831 15.631 A 1.663 1.663 0 0 1 69.71 15.001 L 69.71 11.701 A 32.391 32.391 0 0 0 69.615 9.183 A 27.701 27.701 0 0 0 69.51 8.101 A 158.21 158.21 0 0 0 69.422 7.365 Q 69.318 6.519 69.249 6.052 A 14.075 14.075 0 0 0 69.21 5.801 A 21.24 21.24 0 0 1 69.174 5.119 Q 69.043 1.559 70.321 0.476 A 2.073 2.073 0 0 1 71.71 0.001 Q 73.11 0.001 74.01 1.201 A 5.697 5.697 0 0 1 75.066 3.705 A 6.806 6.806 0 0 1 75.11 4.001 A 3.419 3.419 0 0 1 75.084 4.401 Q 75.021 4.928 74.81 5.701 L 74.71 7.601 L 74.61 12.901 A 10.404 10.404 0 0 1 75.09 12.915 Q 76.36 12.976 79.61 13.301 L 81.81 13.501 L 86.41 13.701 L 87.21 13.701 L 88.01 13.701 Q 90.71 13.701 90.91 16.301 A 31.366 31.366 0 0 1 91.152 18.33 Q 91.349 20.54 91.396 23.628 A 131.622 131.622 0 0 1 91.41 25.601 Q 91.41 28.448 91.261 29.657 A 6.113 6.113 0 0 1 91.21 30.001 A 45.084 45.084 0 0 1 90.343 33.883 Q 89.811 35.883 89.053 38.162 A 112.093 112.093 0 0 1 87.31 43.001 L 85.81 47.101 A 453.599 453.599 0 0 0 83.127 54.714 Q 78.857 67.214 78.31 71.901 Q 78.15 73.021 78.118 73.501 A 3.101 3.101 0 0 0 78.11 73.701 A 2.731 2.731 0 0 0 78.172 74.301 Q 78.318 74.95 78.81 75.301 A 1.889 1.889 0 0 0 79.302 75.541 Q 80.069 75.801 81.51 75.801 Q 82.781 75.801 83.574 75.705 A 8.215 8.215 0 0 0 83.61 75.701 Q 84.509 75.611 84.964 76.29 A 1.82 1.82 0 0 1 85.06 76.451 A 3.033 3.033 0 0 1 85.347 77.275 Q 85.459 77.831 85.416 78.513 A 6.49 6.49 0 0 1 85.41 78.601 A 2.397 2.397 0 0 1 85.17 79.399 Q 84.84 80.031 84.109 80.292 A 2.842 2.842 0 0 1 83.71 80.401 A 13.601 13.601 0 0 1 81.033 80.785 A 15.671 15.671 0 0 1 80.31 80.801 A 9.233 9.233 0 0 1 78.213 80.577 Q 76.518 80.181 75.353 79.091 A 5.894 5.894 0 0 1 75.16 78.901 Q 73.598 77.297 73.355 74.41 A 13.214 13.214 0 0 1 73.31 73.301 A 21.281 21.281 0 0 1 73.456 70.979 Q 73.843 67.496 75.26 61.901 Q 76.57 56.728 77.767 52.818 A 101.084 101.084 0 0 1 78.91 49.301 Q 79.752 46.545 81.474 41.971 A 313.601 313.601 0 0 1 82.61 39.001 Z M 300.71 73.301 L 300.51 70.701 L 299.91 56.901 L 299.31 57.301 A 11.513 11.513 0 0 0 296.653 59.97 A 10.425 10.425 0 0 0 295.56 61.951 A 17.884 17.884 0 0 0 294.803 64.207 Q 294.479 65.412 294.237 66.839 A 41.764 41.764 0 0 0 293.91 69.201 A 60.894 60.894 0 0 0 293.727 71.784 Q 293.654 73.224 293.626 74.863 A 121.724 121.724 0 0 0 293.61 76.901 A 4.186 4.186 0 0 1 293.441 78.147 Q 293.014 79.516 291.511 79.874 A 5.192 5.192 0 0 1 290.31 80.001 Q 289.205 80.001 288.715 79.099 A 2.494 2.494 0 0 1 288.56 78.751 A 7.636 7.636 0 0 1 288.15 76.87 A 9.309 9.309 0 0 1 288.11 76.001 L 288.11 72.851 A 29.24 29.24 0 0 1 288.335 69.167 A 25.69 25.69 0 0 1 288.51 68.001 A 90.356 90.356 0 0 1 288.558 67.716 Q 288.685 66.97 289.01 65.101 Q 289.41 62.801 290.16 60.951 Q 290.91 59.101 292.21 57.601 A 21.004 21.004 0 0 1 298.34 52.86 A 24.752 24.752 0 0 1 299.71 52.201 Q 298.774 31.989 298.714 26.05 A 74.387 74.387 0 0 1 298.71 25.301 A 14.69 14.69 0 0 0 298.472 23.039 Q 298.243 21.836 297.805 20.842 A 8.088 8.088 0 0 0 297.46 20.151 A 4.072 4.072 0 0 0 295.789 18.562 Q 295.109 18.195 294.22 17.968 A 11.091 11.091 0 0 0 292.71 17.701 Q 289.81 17.501 290.11 15.301 Q 290.21 14.301 290.81 13.451 A 2.156 2.156 0 0 1 291.179 13.042 Q 291.596 12.691 292.124 12.691 A 1.685 1.685 0 0 1 292.31 12.701 Q 303.81 13.301 304.31 30.201 L 304.91 50.501 A 10878.93 10878.93 0 0 0 305.052 55.348 Q 305.522 71.251 305.61 72.301 A 47.345 47.345 0 0 0 305.754 72.995 Q 305.955 73.93 306.103 74.381 A 4.367 4.367 0 0 0 306.11 74.401 A 9.145 9.145 0 0 1 306.319 75.138 Q 306.484 75.821 306.61 76.701 A 3.044 3.044 0 0 1 306.619 76.935 Q 306.619 77.979 305.872 78.787 A 3.578 3.578 0 0 1 305.71 78.951 A 3.874 3.874 0 0 1 304.49 79.751 A 3.606 3.606 0 0 1 303.41 80.001 A 3.572 3.572 0 0 1 301.17 79.209 A 4.908 4.908 0 0 1 300.71 78.801 Q 300.548 77.669 300.517 76.994 A 6.437 6.437 0 0 1 300.51 76.701 Q 300.51 75.701 300.71 73.301 Z M 246.61 21.801 L 246.51 29.501 L 246.31 33.701 Q 246.063 35.926 246.019 37.337 A 18.38 18.38 0 0 0 246.01 37.901 L 246.11 38.701 L 246.11 39.601 Q 246.11 56.501 245.66 64.501 A 72.846 72.846 0 0 1 245.312 68.685 Q 244.851 72.709 243.979 75.363 A 16.482 16.482 0 0 1 243.56 76.501 A 8.152 8.152 0 0 1 242.462 78.435 A 5.245 5.245 0 0 1 238.11 80.501 A 9.684 9.684 0 0 1 234.387 79.824 Q 230.905 78.387 229.41 73.901 A 35.69 35.69 0 0 1 228.157 68.808 Q 227.21 63.417 227.21 56.001 Q 227.12 52.781 227.111 47.8 A 633.147 633.147 0 0 1 227.11 46.601 L 227.11 34.901 L 227.31 31.601 Q 227.463 28.539 227.499 26.414 A 72.097 72.097 0 0 0 227.51 25.201 Q 227.51 22.515 227.21 20.955 A 8.5 8.5 0 0 0 227.11 20.501 L 226.81 18.901 Q 223.31 18.901 223.11 16.001 A 2.809 2.809 0 0 1 224.31 13.673 Q 224.745 13.341 225.337 13.076 A 7.045 7.045 0 0 1 225.51 13.001 Q 226.71 13.101 227.81 13.351 A 122.802 122.802 0 0 1 228.593 13.532 Q 228.901 13.604 229.181 13.671 A 66.257 66.257 0 0 1 229.71 13.801 L 229.81 13.801 A 360.373 360.373 0 0 1 231.469 13.805 Q 234.76 13.82 235.41 13.901 L 240.71 13.901 Q 244.41 13.901 245.51 15.601 Q 246.61 17.301 246.61 21.801 Z M 272.61 77.301 L 272.61 70.001 L 272.61 48.801 A 591.326 591.326 0 0 0 272.591 43.948 Q 272.553 39.249 272.434 35.814 A 147.508 147.508 0 0 0 272.31 32.951 A 75.279 75.279 0 0 0 272.069 29.707 Q 271.766 26.606 271.236 24.453 A 21.133 21.133 0 0 0 271.16 24.151 A 11.96 11.96 0 0 0 270.535 22.331 Q 270.118 21.39 269.569 20.696 A 5.284 5.284 0 0 0 268.41 19.601 A 6.624 6.624 0 0 0 266.54 18.736 Q 265.076 18.301 263.11 18.301 L 259.91 18.401 A 9.502 9.502 0 0 1 258.916 18.353 Q 257.874 18.243 257.218 17.884 A 2.723 2.723 0 0 1 257.16 17.851 Q 256.21 17.301 256.21 15.801 A 3.024 3.024 0 0 1 256.485 14.465 Q 257.107 13.188 259.131 12.954 A 8.546 8.546 0 0 1 260.11 12.901 Q 262.61 12.901 265.31 13.701 A 694.396 694.396 0 0 0 266.242 13.976 Q 267.747 14.42 268.24 14.556 A 8.067 8.067 0 0 0 268.41 14.601 A 9.313 9.313 0 0 1 272.223 16.56 A 9.447 9.447 0 0 1 274.51 19.601 A 17.72 17.72 0 0 1 275.601 22.532 Q 276.486 25.66 276.811 30.122 A 63.188 63.188 0 0 1 276.86 30.851 Q 277.293 37.927 277.309 53.018 A 1103.418 1103.418 0 0 1 277.31 54.201 L 277.31 55.001 A 3.246 3.246 0 0 0 277.232 55.454 A 4.346 4.346 0 0 0 277.21 55.901 A 17.248 17.248 0 0 0 277.229 56.651 Q 277.279 57.792 277.464 59.652 A 118.856 118.856 0 0 0 277.51 60.101 L 277.71 64.201 A 26.841 26.841 0 0 0 277.729 65.151 Q 277.767 66.234 277.886 67.742 A 119.422 119.422 0 0 0 278.01 69.201 A 40.942 40.942 0 0 1 278.238 71.545 Q 278.41 73.985 278.41 77.201 L 278.41 78.351 A 1.993 1.993 0 0 1 278.355 78.838 A 1.191 1.191 0 0 1 277.71 79.651 A 2.429 2.429 0 0 1 277.245 79.82 Q 276.56 80.001 275.41 80.001 A 35.888 35.888 0 0 1 274.685 79.629 Q 273.709 79.113 273.272 78.783 A 2.437 2.437 0 0 1 273.11 78.651 A 1.351 1.351 0 0 1 273.102 78.644 Q 272.61 78.194 272.61 77.301 Z M 241.51 42.701 L 241.41 24.201 L 241.41 20.501 A 1.728 1.728 0 0 0 241.35 20.026 Q 241.198 19.494 240.654 19.352 A 1.768 1.768 0 0 0 240.21 19.301 A 558.091 558.091 0 0 0 238.297 19.304 Q 235.888 19.312 234.638 19.343 A 51.185 51.185 0 0 0 234.36 19.351 Q 232.71 19.401 231.81 19.401 L 231.81 46.601 A 1.169 1.169 0 0 1 231.805 46.684 Q 231.772 47.089 231.51 49.101 A 28.492 28.492 0 0 0 231.352 50.705 Q 231.23 52.377 231.213 54.644 A 100.221 100.221 0 0 0 231.21 55.401 A 64.829 64.829 0 0 0 232.129 66.131 A 72.18 72.18 0 0 0 232.41 67.701 Q 233.042 70.702 233.83 72.3 A 6.342 6.342 0 0 0 234.26 73.051 A 3.389 3.389 0 0 0 236.415 74.478 A 5.472 5.472 0 0 0 237.61 74.601 A 2.324 2.324 0 0 0 239.508 73.601 Q 240.385 72.468 240.81 70.051 Q 241.597 65.577 241.61 54.478 A 320.194 320.194 0 0 0 241.61 54.101 Q 241.61 47.001 241.51 42.701 Z" vector-effect="non-scaling-stroke"/></g></svg>