<?xml version="1.0" encoding="iso-8859-1"?>
<!-- Generator: Adobe Illustrator 19.0.0, SVG Export Plug-In . SVG Version: 6.00 Build 0)  -->
<svg version="1.1" id="Capa_1" xmlns="http://www.w3.org/2000/svg" xmlns:xlink="http://www.w3.org/1999/xlink" x="0px" y="0px"
	 viewBox="0 0 488.8 488.8" style="enable-background:new 0 0 488.8 488.8;" xml:space="preserve">
<g>
	<g>
		<path d="M244.4,8C211.7,8,185,34.6,185,67.4s26.6,59.4,59.4,59.4s59.4-26.6,59.4-59.4S277.1,8,244.4,8z M244.4,102.3
			c-19.2,0-34.9-15.7-34.9-34.9s15.6-34.9,34.9-34.9s34.9,15.7,34.9,34.9S263.6,102.3,244.4,102.3z"/>
		<path d="M429.4,8C396.7,8,370,34.6,370,67.4s26.6,59.4,59.4,59.4s59.4-26.6,59.4-59.4S462.1,8,429.4,8z M429.4,102.3
			c-19.2,0-34.9-15.7-34.9-34.9s15.6-34.9,34.9-34.9c19.2,0,34.9,15.7,34.9,34.9S448.6,102.3,429.4,102.3z"/>
		<path d="M59.4,8C26.7,8,0,34.6,0,67.4s26.6,59.4,59.4,59.4s59.4-26.6,59.4-59.4S92.2,8,59.4,8z M59.4,102.3
			c-19.2,0-34.9-15.7-34.9-34.9s15.7-34.9,34.9-34.9s34.9,15.7,34.9,34.9S78.7,102.3,59.4,102.3z"/>
		<path d="M244.4,185c-32.7,0-59.4,26.6-59.4,59.4s26.6,59.4,59.4,59.4s59.4-26.6,59.4-59.4S277.1,185,244.4,185z M244.4,279.3
			c-19.2,0-34.9-15.7-34.9-34.9s15.6-34.9,34.9-34.9s34.9,15.7,34.9,34.9S263.6,279.3,244.4,279.3z"/>
		<path d="M429.4,185c-32.7,0-59.4,26.6-59.4,59.4s26.6,59.4,59.4,59.4s59.4-26.6,59.4-59.4S462.1,185,429.4,185z M429.4,279.3
			c-19.2,0-34.9-15.7-34.9-34.9s15.6-34.9,34.9-34.9c19.2,0,34.9,15.7,34.9,34.9S448.6,279.3,429.4,279.3z"/>
		<path d="M59.4,185C26.7,185,0,211.6,0,244.4s26.6,59.4,59.4,59.4s59.4-26.6,59.4-59.4S92.2,185,59.4,185z M59.4,279.3
			c-19.2,0-34.9-15.7-34.9-34.9s15.6-34.9,34.9-34.9s34.9,15.7,34.9,34.9S78.7,279.3,59.4,279.3z"/>
		<path d="M244.4,362c-32.7,0-59.4,26.6-59.4,59.4c0,32.7,26.6,59.4,59.4,59.4s59.4-26.6,59.4-59.4C303.8,388.7,277.1,362,244.4,362
			z M244.4,456.3c-19.2,0-34.9-15.7-34.9-34.9c0-19.2,15.6-34.9,34.9-34.9s34.9,15.7,34.9,34.9C279.3,440.7,263.6,456.3,244.4,456.3
			z"/>
		<path d="M429.4,362c-32.7,0-59.4,26.6-59.4,59.4c0,32.7,26.6,59.4,59.4,59.4s59.4-26.6,59.4-59.4C488.8,388.7,462.1,362,429.4,362
			z M429.4,456.3c-19.2,0-34.9-15.7-34.9-34.9c0-19.2,15.6-34.9,34.9-34.9c19.2,0,34.9,15.7,34.9,34.9
			C464.3,440.7,448.6,456.3,429.4,456.3z"/>
		<path d="M59.4,362C26.7,362,0,388.6,0,421.4c0,32.7,26.6,59.4,59.4,59.4s59.4-26.6,59.4-59.4C118.8,388.7,92.2,362,59.4,362z
			 M59.4,456.3c-19.2,0-34.9-15.7-34.9-34.9c0-19.2,15.6-34.9,34.9-34.9s34.9,15.7,34.9,34.9C94.3,440.7,78.7,456.3,59.4,456.3z"/>
	</g>
</g>
<g>
</g>
<g>
</g>
<g>
</g>
<g>
</g>
<g>
</g>
<g>
</g>
<g>
</g>
<g>
</g>
<g>
</g>
<g>
</g>
<g>
</g>
<g>
</g>
<g>
</g>
<g>
</g>
<g>
</g>
</svg>
